<svg xmlns="http://www.w3.org/2000/svg" xmlns:xlink="http://www.w3.org/1999/xlink" xmlns:lucid="lucid" width="1222" height="678"><g transform="translate(-79.00000000000034 221)" lucid:page-tab-id="0_0"><path d="M100 86a6 6 0 0 1 6-6h208a6 6 0 0 1 6 6v64a6 6 0 0 1-6 6H106a6 6 0 0 1-6-6z" stroke="#b5d6ff" stroke-width="2" fill="#cfe4ff"/><use xlink:href="#a" transform="matrix(1,0,0,1,108.00000000000034,88) translate(77.99609375 35.322265625)"/><path d="M420-14a6 6 0 0 1 6-6h208a6 6 0 0 1 6 6v64a6 6 0 0 1-6 6H426a6 6 0 0 1-6-6z" stroke="#b5d6ff" stroke-width="2" fill="#cfe4ff"/><use xlink:href="#b" transform="matrix(1,0,0,1,428,-12) translate(65.994140625 35.322265625)"/><path d="M420 186a6 6 0 0 1 6-6h208a6 6 0 0 1 6 6v64a6 6 0 0 1-6 6H426a6 6 0 0 1-6-6z" stroke="#b5d6ff" stroke-width="2" fill="#cfe4ff"/><use xlink:href="#c" transform="matrix(1,0,0,1,428.00000000000006,188) translate(77.99609375 35.322265625)"/><path d="M740 186a6 6 0 0 1 6-6h208a6 6 0 0 1 6 6v64a6 6 0 0 1-6 6H746a6 6 0 0 1-6-6z" stroke="#b5d6ff" stroke-width="2" fill="#cfe4ff"/><use xlink:href="#d" transform="matrix(1,0,0,1,748.0000000000001,188) translate(65.994140625 35.322265625)"/><path d="M418 18H216a6 6 0 0 0-6 6v36.5" stroke="#1071e5" stroke-width="2" fill="none"/><path d="M419 18.98h-1.03v-1.96H419z" stroke="#1071e5" stroke-width=".05" fill="#1071e5"/><path d="M210 75.76l-4.63-14.26h9.26z" stroke="#1071e5" stroke-width="2" fill="#1071e5"/><path d="M418 218H216a6 6 0 0 1-6-6v-36.5" stroke="#1071e5" stroke-width="2" fill="none"/><path d="M419 218.97h-1.03v-1.94H419z" stroke="#1071e5" stroke-width=".05" fill="#1071e5"/><path d="M210 160.24l4.63 14.26h-9.26z" stroke="#1071e5" stroke-width="2" fill="#1071e5"/><path d="M738 218h-78.5" stroke="#1071e5" stroke-width="2" fill="none"/><path d="M739 218.97h-1.03v-1.94H739z" stroke="#1071e5" stroke-width=".05" fill="#1071e5"/><path d="M644.24 218l14.26-4.63v9.26z" stroke="#1071e5" stroke-width="2" fill="#1071e5"/><path d="M740-14a6 6 0 0 1 6-6h208a6 6 0 0 1 6 6v64a6 6 0 0 1-6 6H746a6 6 0 0 1-6-6z" stroke="#b5d6ff" stroke-width="2" fill="#cfe4ff"/><use xlink:href="#e" transform="matrix(1,0,0,1,747.9999999999997,-12) translate(35.989257812500014 35.322265625)"/><path d="M738 18h-78.5" stroke="#1071e5" stroke-width="2" fill="none"/><path d="M739 18.98h-1.03v-1.96H739z" stroke="#1071e5" stroke-width=".05" fill="#1071e5"/><path d="M644.24 18l14.26-4.63v9.27z" stroke="#1071e5" stroke-width="2" fill="#1071e5"/><path d="M420 366a6 6 0 0 1 6-6h208a6 6 0 0 1 6 6v64a6 6 0 0 1-6 6H426a6 6 0 0 1-6-6z" stroke="#8ee895" stroke-width="2" fill="#c3f7c8"/><use xlink:href="#f" transform="matrix(1,0,0,1,428,368) translate(77.99609375 35.322265625)"/><path d="M530 358v-82.5" stroke="#008a0e" stroke-width="2" fill="none"/><path d="M530.98 359H529v-1.03H531z" stroke="#008a0e" stroke-width=".05" fill="#008a0e"/><path d="M530 260.24l4.63 14.26h-9.26z" stroke="#008a0e" stroke-width="2" fill="#008a0e"/><path d="M740-194a6 6 0 0 1 6-6h208a6 6 0 0 1 6 6v64a6 6 0 0 1-6 6H746a6 6 0 0 1-6-6z" stroke="#8ee895" stroke-width="2" fill="#c3f7c8"/><use xlink:href="#g" transform="matrix(1,0,0,1,747.9999999999997,-192) translate(83.9970703125 35.322265625)"/><path d="M850-122v82.5" stroke="#008a0e" stroke-width="2" fill="none"/><path d="M850.98-121.97H849V-123H851z" stroke="#008a0e" stroke-width=".05" fill="#008a0e"/><path d="M850-24.24l-4.63-14.26h9.26z" stroke="#008a0e" stroke-width="2" fill="#008a0e"/><path d="M1060 86a6 6 0 0 1 6-6h208a6 6 0 0 1 6 6v64a6 6 0 0 1-6 6h-208a6 6 0 0 1-6-6z" stroke="#fcce14" stroke-width="2" fill="#fcfcca"/><use xlink:href="#h" transform="matrix(1,0,0,1,1068,88) translate(71.9951171875 35.322265625)"/><path d="M530 178v-11.33m0-11.34V144l.07-.94.22-.9.35-.88.5-.8.6-.72.72-.6.8-.5.88-.37.9-.23.95-.07h9.9m9.88 0h19.8m9.88 0h19.78m9.9 0h19.78m9.9 0h19.78m9.9 0h19.77m9.9 0h19.78m9.9 0h19.78m9.9 0h19.77m9.9 0h19.78m9.9 0h19.78m9.9 0h19.77m9.9 0H902m9.9 0h19.78m9.9 0h19.78m9.9 0h19.78m9.9 0h19.77m9.9 0h9.9" stroke="#1071e5" stroke-width="2" fill="none"/><path d="M530.98 179H529v-1.03H531z" stroke="#1071e5" stroke-width=".05" fill="#1071e5"/><path d="M1055.76 138l-14.26 4.63v-9.26z" stroke="#1071e5" stroke-width="2" fill="#1071e5"/><path d="M530 58v11.78m0 11.78v11.77l.07.94.22.92.35.86.5.8.6.72.72.6.8.5.88.36.9.22.95.07h9.9m9.88 0h19.8m9.88 0h19.78m9.9 0h19.78m9.9 0h19.78m9.9 0h19.77m9.9 0h19.78m9.9 0h19.78m9.9 0h19.77m9.9 0h19.78m9.9 0h19.78m9.9 0h19.77m9.9 0H902m9.9 0h19.78m9.9 0h19.78m9.9 0h19.78m9.9 0h19.77m9.9 0h9.9" stroke="#1071e5" stroke-width="2" fill="none"/><path d="M530.98 58.03H529V57H531z" stroke="#1071e5" stroke-width=".05" fill="#1071e5"/><path d="M1055.76 99.33l-14.26 4.64V94.7z" stroke="#1071e5" stroke-width="2" fill="#1071e5"/><path d="M962 218h9.62m9.62 0h19.24m9.62 0h19.23m9.62 0h19.24m9.6 0h19.25m9.62 0h19.23m9.62 0h19.24m9.62 0h9.62l.94-.07.9-.22.88-.35.8-.5.72-.6.6-.72.5-.8.37-.88.23-.9.07-.95v-12.17m0-12.16V175.5" stroke="#1071e5" stroke-width="2" fill="none"/><path d="M962.03 218.97H961v-1.94h1.03z" stroke="#1071e5" stroke-width=".05" fill="#1071e5"/><path d="M1170 160.24l4.63 14.26h-9.27z" stroke="#1071e5" stroke-width="2" fill="#1071e5"/><path d="M962-162h9.62m9.62 0h19.24m9.62 0h19.23m9.62 0h19.24m9.6 0h19.25m9.62 0h19.23m9.62 0h19.24m9.62 0h9.62l.94.07.9.22.88.35.8.5.72.6.6.72.5.8.37.88.23.9.07.95v10.3m0 10.32v20.62m0 10.3v20.63m0 10.3v20.62m0 10.3v20.62m0 10.3V8.96m0 10.3V39.9m0 10.3V60.5" stroke="#008a0e" stroke-width="2" fill="none"/><path d="M962.03-161.03H961v-1.94h1.03z" stroke="#008a0e" stroke-width=".05" fill="#008a0e"/><path d="M1170 75.76l-4.63-14.26h9.27z" stroke="#008a0e" stroke-width="2" fill="#008a0e"/><defs><path fill="#282c33" d="M285-1169c8 382 2 780 4 1169H129v-1349h237c86 239 188 461 253 720 69-258 169-481 255-720h225V0H937c2-390-5-788 6-1169-75 255-170 488-259 729H547c-90-240-185-475-262-729" id="i"/><path fill="#282c33" d="M1000-272c3 95 12 159 101 161 21 0 41-3 59-7V-6c-44 10-86 16-139 16-141 2-191-84-197-217h-6C748-76 648 20 446 20c-207 0-318-120-318-322 0-266 194-348 454-354l236-4c12-191-40-305-222-305-140 0-220 47-232 172l-188-17c33-204 181-292 423-292 255 0 401 118 401 364v466zm-683-27c0 109 63 184 175 182 166-3 259-96 306-217 24-65 20-120 20-200-232 7-501-28-501 235" id="j"/><path fill="#282c33" d="M745-142h380V0H143v-142h422v-798H246v-142h499v940zM545-1292v-192h200v192H545" id="k"/><path fill="#282c33" d="M706-1102c241 0 344 136 343 381V0H868v-695c1-168-57-273-220-268-190 6-283 138-283 336V0H185c-3-360 6-732-6-1082h170c4 54 7 126 8 185h3c63-121 164-204 346-205" id="l"/><g id="a"><use transform="matrix(0.009765624999999998,0,0,0.009765624999999998,0,0)" xlink:href="#i"/><use transform="matrix(0.009765624999999998,0,0,0.009765624999999998,12.001953124999998,0)" xlink:href="#j"/><use transform="matrix(0.009765624999999998,0,0,0.009765624999999998,24.003906249999996,0)" xlink:href="#k"/><use transform="matrix(0.009765624999999998,0,0,0.009765624999999998,36.00585937499999,0)" xlink:href="#l"/></g><path fill="#282c33" d="M1121-976c0 225-142 341-344 379L1177 0H957L591-575H353V0H162v-1349h482c281 3 477 100 477 373zM633-726c181-1 296-73 296-247 0-149-101-223-304-223H353v470h280" id="m"/><path fill="#282c33" d="M615-1102c343 0 484 203 482 560-1 347-147 562-488 562-336 0-475-219-479-562-4-349 156-560 485-560zm-8 989c240 0 301-180 301-429 0-245-55-427-290-427-236 0-299 181-299 427 0 243 61 429 288 429" id="n"/><path fill="#282c33" d="M528 20c-247 0-343-132-343-381v-721h180v686c-4 177 45 284 224 277 194-8 279-136 279-336v-627h181c3 360-6 732 6 1082H885c-4-54-7-126-8-185h-3C809-64 714 20 528 20" id="o"/><path fill="#282c33" d="M682 16c-209 0-323-80-324-285v-671H190v-142h170l58-282h120v282h432v142H538v652c2 114 60 155 182 155 106 0 209-16 297-34v137C921-4 806 16 682 16" id="p"/><path fill="#282c33" d="M617-1102c355 0 481 238 477 599H322c5 222 84 388 301 388 144 0 244-59 284-166l158 45C1002-72 854 20 623 20c-342 0-490-220-490-568 0-346 151-554 484-554zm291 461c-18-192-90-328-289-328-194 0-287 128-295 328h584" id="q"/><path fill="#282c33" d="M873-819c-18-114-119-146-250-146-163 0-245 50-245 151 0 151 170 148 294 185 182 54 388 94 388 320 0 240-189 325-439 329-245 4-410-69-454-268l159-31c24 133 136 168 295 165 144-2 270-31 270-171 0-164-195-160-331-202-167-52-350-87-350-299 0-218 173-315 413-313 220 2 373 77 412 260" id="r"/><g id="b"><use transform="matrix(0.009765624999999998,0,0,0.009765624999999998,0,0)" xlink:href="#m"/><use transform="matrix(0.009765624999999998,0,0,0.009765624999999998,12.001953124999998,0)" xlink:href="#n"/><use transform="matrix(0.009765624999999998,0,0,0.009765624999999998,24.003906249999996,0)" xlink:href="#o"/><use transform="matrix(0.009765624999999998,0,0,0.009765624999999998,36.00585937499999,0)" xlink:href="#p"/><use transform="matrix(0.009765624999999998,0,0,0.009765624999999998,48.00781249999999,0)" xlink:href="#q"/><use transform="matrix(0.009765624999999998,0,0,0.009765624999999998,60.009765624999986,0)" xlink:href="#r"/></g><path fill="#282c33" d="M473-1349c438-1 655 221 652 661C1122-268 945-8 532 0H162v-1349h311zm42 1193c308-4 416-205 418-532 2-330-131-509-459-505H353v1037h162" id="s"/><g id="c"><use transform="matrix(0.009765624999999998,0,0,0.009765624999999998,0,0)" xlink:href="#s"/><use transform="matrix(0.009765624999999998,0,0,0.009765624999999998,12.001953124999998,0)" xlink:href="#j"/><use transform="matrix(0.009765624999999998,0,0,0.009765624999999998,24.003906249999996,0)" xlink:href="#p"/><use transform="matrix(0.009765624999999998,0,0,0.009765624999999998,36.00585937499999,0)" xlink:href="#j"/></g><path fill="#282c33" d="M865-914c-3-187-2-380-2-570h180v1261c0 76 1 155 6 223H877c-8-49-9-116-10-174h-5C801-44 708 26 530 26c-135 0-234-46-297-139s-95-232-95-419c0-377 131-566 392-566 176 0 271 63 335 184zm-286-51c-222 0-255 197-255 427 0 229 31 425 253 425 237 0 286-195 286-441 0-238-52-411-284-411" id="t"/><path fill="#282c33" d="M736-142h380V0H134v-142h422v-1200H267v-142h469v1342" id="u"/><g id="d"><use transform="matrix(0.009765624999999998,0,0,0.009765624999999998,0,0)" xlink:href="#i"/><use transform="matrix(0.009765624999999998,0,0,0.009765624999999998,12.001953124999998,0)" xlink:href="#n"/><use transform="matrix(0.009765624999999998,0,0,0.009765624999999998,24.003906249999996,0)" xlink:href="#t"/><use transform="matrix(0.009765624999999998,0,0,0.009765624999999998,36.00585937499999,0)" xlink:href="#q"/><use transform="matrix(0.009765624999999998,0,0,0.009765624999999998,48.00781249999999,0)" xlink:href="#u"/><use transform="matrix(0.009765624999999998,0,0,0.009765624999999998,60.009765624999986,0)" xlink:href="#r"/></g><path fill="#282c33" d="M650-1214c-281 0-336 244-336 533 0 295 60 546 347 546 188 0 263-142 322-282l159 65C1058-155 935 20 659 20c-401 0-546-295-546-701 0-407 135-689 536-689 264 0 391 146 466 335l-168 65c-47-129-127-244-297-244" id="v"/><path fill="#282c33" d="M839-1102c70 0 148 7 206 17v167c-112-18-268-36-363 15-129 69-208 203-208 395V0H294c-10-367 32-789-52-1082h171c21 75 41 161 48 250h5c67-152 152-270 373-270" id="w"/><g id="e"><use transform="matrix(0.009765624999999998,0,0,0.009765624999999998,0,0)" xlink:href="#v"/><use transform="matrix(0.009765624999999998,0,0,0.009765624999999998,12.001953124999998,0)" xlink:href="#n"/><use transform="matrix(0.009765624999999998,0,0,0.009765624999999998,24.003906249999996,0)" xlink:href="#l"/><use transform="matrix(0.009765624999999998,0,0,0.009765624999999998,36.00585937499999,0)" xlink:href="#p"/><use transform="matrix(0.009765624999999998,0,0,0.009765624999999998,48.00781249999999,0)" xlink:href="#w"/><use transform="matrix(0.009765624999999998,0,0,0.009765624999999998,60.009765624999986,0)" xlink:href="#n"/><use transform="matrix(0.009765624999999998,0,0,0.009765624999999998,72.01171874999999,0)" xlink:href="#u"/><use transform="matrix(0.009765624999999998,0,0,0.009765624999999998,84.01367187499999,0)" xlink:href="#u"/><use transform="matrix(0.009765624999999998,0,0,0.009765624999999998,96.01562499999999,0)" xlink:href="#q"/><use transform="matrix(0.009765624999999998,0,0,0.009765624999999998,108.01757812499999,0)" xlink:href="#w"/><use transform="matrix(0.009765624999999998,0,0,0.009765624999999998,120.01953124999997,0)" xlink:href="#r"/></g><path fill="#282c33" d="M655-135c108 0 195-33 260-74v-336H622v-160h479v572C981-54 839 20 639 20c-388 0-526-306-526-701 0-406 129-689 529-689 261 0 392 137 461 331l-171 56c-47-131-122-231-288-231-281 0-330 245-330 533 0 179 28 314 84 407s142 139 257 139" id="x"/><path fill="#282c33" d="M904-1102c199 0 220 177 220 381V0H956v-686c-3-114 0-215-60-264-70-33-125-4-158 71-26 56-39 140-39 252V0H531v-686c-3-114-1-215-61-264-78-41-136 24-157 84-24 69-39 159-39 259V0H105c-3-360 6-732-6-1082h149c6 50 3 123 8 175 36-100 83-195 216-195 135 0 166 79 196 196 42-105 93-196 236-196" id="y"/><g id="f"><use transform="matrix(0.009765624999999998,0,0,0.009765624999999998,0,0)" xlink:href="#x"/><use transform="matrix(0.009765624999999998,0,0,0.009765624999999998,12.001953124999998,0)" xlink:href="#n"/><use transform="matrix(0.009765624999999998,0,0,0.009765624999999998,24.003906249999996,0)" xlink:href="#w"/><use transform="matrix(0.009765624999999998,0,0,0.009765624999999998,36.00585937499999,0)" xlink:href="#y"/></g><g id="g"><use transform="matrix(0.009765624999999998,0,0,0.009765624999999998,0,0)" xlink:href="#x"/><use transform="matrix(0.009765624999999998,0,0,0.009765624999999998,12.001953124999998,0)" xlink:href="#k"/><use transform="matrix(0.009765624999999998,0,0,0.009765624999999998,24.003906249999996,0)" xlink:href="#l"/></g><path fill="#282c33" d="M709-1193V0H519v-1193H76v-156h1076v156H709" id="z"/><g id="h"><use transform="matrix(0.009765624999999998,0,0,0.009765624999999998,0,0)" xlink:href="#z"/><use transform="matrix(0.009765624999999998,0,0,0.009765624999999998,12.001953124999998,0)" xlink:href="#q"/><use transform="matrix(0.009765624999999998,0,0,0.009765624999999998,24.003906249999996,0)" xlink:href="#r"/><use transform="matrix(0.009765624999999998,0,0,0.009765624999999998,36.00585937499999,0)" xlink:href="#p"/><use transform="matrix(0.009765624999999998,0,0,0.009765624999999998,48.00781249999999,0)" xlink:href="#r"/></g></defs></g></svg>