<svg xmlns="http://www.w3.org/2000/svg" xmlns:xlink="http://www.w3.org/1999/xlink" xmlns:lucid="lucid" width="1122" height="642"><g transform="translate(41 281)" lucid:page-tab-id="0_0"><path d="M560 86a6 6 0 0 1 6-6h208a6 6 0 0 1 6 6v68a6 6 0 0 1-6 6H566a6 6 0 0 1-6-6z" stroke="#6db1ff" stroke-width="2" fill="#cfe4ff"/><use xlink:href="#a" transform="matrix(1,0,0,1,568,88) translate(65.994140625 38.0986328125)"/><path d="M260-74a6 6 0 0 1 6-6h208a6 6 0 0 1 6 6v68a6 6 0 0 1-6 6H266a6 6 0 0 1-6-6z" stroke="#6db1ff" stroke-width="2" fill="#cfe4ff"/><use xlink:href="#b" transform="matrix(1,0,0,1,268,-72) translate(65.994140625 38.0986328125)"/><path d="M260 86a6 6 0 0 1 6-6h208a6 6 0 0 1 6 6v68a6 6 0 0 1-6 6H266a6 6 0 0 1-6-6z" stroke="#6db1ff" stroke-width="2" fill="#cfe4ff"/><use xlink:href="#c" transform="matrix(1,0,0,1,268,88) translate(35.9892578125 38.0986328125)"/><path d="M560-234a6 6 0 0 1 6-6h208a6 6 0 0 1 6 6v68a6 6 0 0 1-6 6H566a6 6 0 0 1-6-6z" stroke="#54c45e" stroke-width="2" fill="#c3f7c8"/><use xlink:href="#d" transform="matrix(1,0,0,1,568,-232) translate(71.9951171875 38.0986328125)"/><path d="M260 246a6 6 0 0 1 6-6h208a6 6 0 0 1 6 6v68a6 6 0 0 1-6 6H266a6 6 0 0 1-6-6z" stroke="#6db1ff" stroke-width="2" fill="#cfe4ff"/><use xlink:href="#e" transform="matrix(1,0,0,1,268.00000000000006,248) translate(53.9921875 38.0986328125)"/><path d="M860 246a6 6 0 0 1 6-6h208a6 6 0 0 1 6 6v68a6 6 0 0 1-6 6H866a6 6 0 0 1-6-6z" stroke="#ff8f8f" stroke-width="2" fill="#ffd9d9"/><use xlink:href="#f" transform="matrix(1,0,0,1,868,248) translate(77.99609375 38.0986328125)"/><path d="M-40-234a6 6 0 0 1 6-6h208a6 6 0 0 1 6 6v68a6 6 0 0 1-6 6H-34a6 6 0 0 1-6-6z" stroke="#ff8f8f" stroke-width="2" fill="#ffd9d9"/><use xlink:href="#g" transform="matrix(1,0,0,1,-32,-232) translate(83.9970703125 38.0986328125)"/><path d="M370-82v-58.5" stroke="#6db1ff" stroke-width="2" fill="none"/><path d="M370.98-81h-1.96v-1.03h1.96z" stroke="#6db1ff" stroke-width=".05" fill="#6db1ff"/><path d="M370-155.76l4.63 14.26h-9.26z" stroke="#6db1ff" stroke-width="2" fill="#6db1ff"/><path d="M558 280h-58.5" stroke="#6db1ff" stroke-width="2" fill="none"/><path d="M559 280.98h-1.03v-1.96H559z" stroke="#6db1ff" stroke-width=".05" fill="#6db1ff"/><path d="M484.24 280l14.26-4.63v9.26z" stroke="#6db1ff" stroke-width="2" fill="#6db1ff"/><path d="M370 238v-58.5" stroke="#6db1ff" stroke-width="2" fill="none"/><path d="M370.98 239h-1.96v-1.03h1.96z" stroke="#6db1ff" stroke-width=".05" fill="#6db1ff"/><path d="M370 164.24l4.63 14.26h-9.26z" stroke="#6db1ff" stroke-width="2" fill="#6db1ff"/><path d="M370 78V19.5" stroke="#6db1ff" stroke-width="2" fill="none"/><path d="M370.98 79h-1.96v-1.03h1.96z" stroke="#6db1ff" stroke-width=".05" fill="#6db1ff"/><path d="M370 4.24l4.63 14.26h-9.26z" stroke="#6db1ff" stroke-width="2" fill="#6db1ff"/><path d="M558 120h-58.5" stroke="#6db1ff" stroke-width="2" fill="none"/><path d="M559 120.97h-1.03v-1.94H559z" stroke="#6db1ff" stroke-width=".05" fill="#6db1ff"/><path d="M484.24 120l14.26-4.64v9.28z" stroke="#6db1ff" stroke-width="2" fill="#6db1ff"/><path d="M70-158v112a6 6 0 0 0 6 6h164.5" stroke="#fe7070" stroke-width="2" fill="none"/><path d="M70.97-157.97h-1.94V-159h1.94z" stroke="#fe7070" stroke-width=".05" fill="#fe7070"/><path d="M255.76-40l-14.26 4.63v-9.27z" stroke="#fe7070" stroke-width="2" fill="#fe7070"/><path d="M560 246a6 6 0 0 1 6-6h208a6 6 0 0 1 6 6v68a6 6 0 0 1-6 6H566a6 6 0 0 1-6-6z" stroke="#6db1ff" stroke-width="2" fill="#cfe4ff"/><use xlink:href="#h" transform="matrix(1,0,0,1,568,248) translate(77.99609375 38.0986328125)"/><path d="M670 162v58.5" stroke="#6db1ff" stroke-width="2" fill="none"/><path d="M670.98 162.03H669V161H671z" stroke="#6db1ff" stroke-width=".05" fill="#6db1ff"/><path d="M670 235.76l-4.63-14.26h9.26z" stroke="#6db1ff" stroke-width="2" fill="#6db1ff"/><path d="M858 280h-58.5" stroke="#fe7070" stroke-width="2" fill="none"/><path d="M859 280.98h-1.03v-1.96H859z" stroke="#fe7070" stroke-width=".05" fill="#fe7070"/><path d="M784.24 280l14.26-4.63v9.26z" stroke="#fe7070" stroke-width="2" fill="#fe7070"/><path d="M558-40h-58.5" stroke="#fcce14" stroke-width="2" fill="none"/><path d="M559-39.02h-1.03v-1.95H559z" stroke="#fcce14" stroke-width=".05" fill="#fcce14"/><path d="M484.24-40l14.26-4.63v9.27z" stroke="#fcce14" stroke-width="2" fill="#fcce14"/><path d="M70-158v272a6 6 0 0 0 6 6h164.5" stroke="#fe7070" stroke-width="2" fill="none"/><path d="M70.97-157.97h-1.94V-159h1.94z" stroke="#fe7070" stroke-width=".05" fill="#fe7070"/><path d="M255.76 120l-14.26 4.64v-9.28z" stroke="#fe7070" stroke-width="2" fill="#fe7070"/><path d="M560-74a6 6 0 0 1 6-6h208a6 6 0 0 1 6 6v68a6 6 0 0 1-6 6H566a6 6 0 0 1-6-6z" stroke="#fcce14" stroke-width="2" fill="#fcfcca"/><use xlink:href="#i" transform="matrix(1,0,0,1,568,-72) translate(77.99609375 38.0986328125)"/><path d="M65.34-242v-10.67m0-10.66V-274l.07-.94.23-.9.36-.88.48-.8.62-.72.7-.6.8-.5.9-.37.9-.23.94-.07h9.88m9.88 0h19.75m9.88 0h19.75m9.88 0h19.76m9.87 0h19.75m9.88 0h19.75m9.88 0H259m9.9 0h19.75m9.88 0h19.75m9.88 0h19.75m9.9 0h19.75m9.88 0h19.75m9.88 0h19.75m9.9 0h19.75m9.87 0h19.76m9.88 0h19.75m9.9 0h19.75m9.87 0h19.76m9.88 0h19.75m9.9 0h19.75m9.87 0H664l.94.07.9.22.88.35.8.5.72.6.6.72.5.8.37.88.23.9.07.95v14.5" stroke="#fe7070" stroke-width="2" fill="none"/><path d="M66.3-241h-1.94v-1.03h1.95z" stroke="#fe7070" stroke-width=".05" fill="#fe7070"/><path d="M670-244.24l-4.63-14.26h9.26z" stroke="#fe7070" stroke-width="2" fill="#fe7070"/><path d="M260-234a6 6 0 0 1 6-6h208a6 6 0 0 1 6 6v68a6 6 0 0 1-6 6H266a6 6 0 0 1-6-6z" stroke="#6db1ff" stroke-width="2" fill="#cfe4ff"/><use xlink:href="#j" transform="matrix(1,0,0,1,268,-232) translate(77.99609375 38.0986328125)"/><path d="M558 280h-32a6 6 0 0 1-6-6v-468a6 6 0 0 0-6-6h-14.5" stroke="#6db1ff" stroke-width="2" fill="none"/><path d="M559 280.98h-1.03v-1.96H559z" stroke="#6db1ff" stroke-width=".05" fill="#6db1ff"/><path d="M484.24-200l14.26-4.63v9.26z" stroke="#6db1ff" stroke-width="2" fill="#6db1ff"/><path d="M782 120h32a6 6 0 0 1 6 6v228a6 6 0 0 1-6 6H376a6 6 0 0 1-6-6v-14.5" stroke="#6db1ff" stroke-width="2" fill="none"/><path d="M782.03 120.97H781v-1.94h1.03z" stroke="#6db1ff" stroke-width=".05" fill="#6db1ff"/><path d="M370 324.24l4.63 14.26h-9.26z" stroke="#6db1ff" stroke-width="2" fill="#6db1ff"/><defs><path fill="#282c33" d="M904-1102c199 0 220 177 220 381V0H956v-686c-3-114 0-215-60-264-70-33-125-4-158 71-26 56-39 140-39 252V0H531v-686c-3-114-1-215-61-264-78-41-136 24-157 84-24 69-39 159-39 259V0H105c-3-360 6-732-6-1082h149c6 50 3 123 8 175 36-100 83-195 216-195 135 0 166 79 196 196 42-105 93-196 236-196" id="k"/><path fill="#282c33" d="M615-1102c343 0 484 203 482 560-1 347-147 562-488 562-336 0-475-219-479-562-4-349 156-560 485-560zm-8 989c240 0 301-180 301-429 0-245-55-427-290-427-236 0-299 181-299 427 0 243 61 429 288 429" id="l"/><path fill="#282c33" d="M865-914c-3-187-2-380-2-570h180v1261c0 76 1 155 6 223H877c-8-49-9-116-10-174h-5C801-44 708 26 530 26c-135 0-234-46-297-139s-95-232-95-419c0-377 131-566 392-566 176 0 271 63 335 184zm-286-51c-222 0-255 197-255 427 0 229 31 425 253 425 237 0 286-195 286-441 0-238-52-411-284-411" id="m"/><path fill="#282c33" d="M617-1102c355 0 481 238 477 599H322c5 222 84 388 301 388 144 0 244-59 284-166l158 45C1002-72 854 20 623 20c-342 0-490-220-490-568 0-346 151-554 484-554zm291 461c-18-192-90-328-289-328-194 0-287 128-295 328h584" id="n"/><path fill="#282c33" d="M736-142h380V0H134v-142h422v-1200H267v-142h469v1342" id="o"/><path fill="#282c33" d="M873-819c-18-114-119-146-250-146-163 0-245 50-245 151 0 151 170 148 294 185 182 54 388 94 388 320 0 240-189 325-439 329-245 4-410-69-454-268l159-31c24 133 136 168 295 165 144-2 270-31 270-171 0-164-195-160-331-202-167-52-350-87-350-299 0-218 173-315 413-313 220 2 373 77 412 260" id="p"/><g id="a"><use transform="matrix(0.009765625,0,0,0.009765625,0,0)" xlink:href="#k"/><use transform="matrix(0.009765625,0,0,0.009765625,12.001953125,0)" xlink:href="#l"/><use transform="matrix(0.009765625,0,0,0.009765625,24.00390625,0)" xlink:href="#m"/><use transform="matrix(0.009765625,0,0,0.009765625,36.005859375,0)" xlink:href="#n"/><use transform="matrix(0.009765625,0,0,0.009765625,48.0078125,0)" xlink:href="#o"/><use transform="matrix(0.009765625,0,0,0.009765625,60.009765625,0)" xlink:href="#p"/></g><path fill="#282c33" d="M839-1102c70 0 148 7 206 17v167c-112-18-268-36-363 15-129 69-208 203-208 395V0H294c-10-367 32-789-52-1082h171c21 75 41 161 48 250h5c67-152 152-270 373-270" id="q"/><path fill="#282c33" d="M528 20c-247 0-343-132-343-381v-721h180v686c-4 177 45 284 224 277 194-8 279-136 279-336v-627h181c3 360-6 732 6 1082H885c-4-54-7-126-8-185h-3C809-64 714 20 528 20" id="r"/><path fill="#282c33" d="M682 16c-209 0-323-80-324-285v-671H190v-142h170l58-282h120v282h432v142H538v652c2 114 60 155 182 155 106 0 209-16 297-34v137C921-4 806 16 682 16" id="s"/><g id="b"><use transform="matrix(0.009765625,0,0,0.009765625,0,0)" xlink:href="#q"/><use transform="matrix(0.009765625,0,0,0.009765625,12.001953125,0)" xlink:href="#l"/><use transform="matrix(0.009765625,0,0,0.009765625,24.00390625,0)" xlink:href="#r"/><use transform="matrix(0.009765625,0,0,0.009765625,36.005859375,0)" xlink:href="#s"/><use transform="matrix(0.009765625,0,0,0.009765625,48.0078125,0)" xlink:href="#n"/><use transform="matrix(0.009765625,0,0,0.009765625,60.009765625,0)" xlink:href="#p"/></g><path fill="#282c33" d="M631 20c-350 0-501-215-501-562 0-355 162-560 502-560 250 0 399 118 446 323l-192 14c-23-124-109-196-262-196-242 0-305 171-305 415 1 245 61 427 304 427 151 0 248-77 267-215l190 12C1039-107 883 20 631 20" id="t"/><path fill="#282c33" d="M706-1102c241 0 344 136 343 381V0H868v-695c1-168-57-273-220-268-190 6-283 138-283 336V0H185c-3-360 6-732-6-1082h170c4 54 7 126 8 185h3c63-121 164-204 346-205" id="u"/><g id="c"><use transform="matrix(0.009765625,0,0,0.009765625,0,0)" xlink:href="#t"/><use transform="matrix(0.009765625,0,0,0.009765625,12.001953125,0)" xlink:href="#l"/><use transform="matrix(0.009765625,0,0,0.009765625,24.00390625,0)" xlink:href="#u"/><use transform="matrix(0.009765625,0,0,0.009765625,36.005859375,0)" xlink:href="#s"/><use transform="matrix(0.009765625,0,0,0.009765625,48.0078125,0)" xlink:href="#q"/><use transform="matrix(0.009765625,0,0,0.009765625,60.009765625,0)" xlink:href="#l"/><use transform="matrix(0.009765625,0,0,0.009765625,72.01171875,0)" xlink:href="#o"/><use transform="matrix(0.009765625,0,0,0.009765625,84.013671875,0)" xlink:href="#o"/><use transform="matrix(0.009765625,0,0,0.009765625,96.015625,0)" xlink:href="#n"/><use transform="matrix(0.009765625,0,0,0.009765625,108.017578125,0)" xlink:href="#q"/><use transform="matrix(0.009765625,0,0,0.009765625,120.01953125,0)" xlink:href="#p"/></g><g id="d"><use transform="matrix(0.009765625,0,0,0.009765625,0,0)" xlink:href="#s"/><use transform="matrix(0.009765625,0,0,0.009765625,12.001953125,0)" xlink:href="#n"/><use transform="matrix(0.009765625,0,0,0.009765625,24.00390625,0)" xlink:href="#p"/><use transform="matrix(0.009765625,0,0,0.009765625,36.005859375,0)" xlink:href="#s"/><use transform="matrix(0.009765625,0,0,0.009765625,48.0078125,0)" xlink:href="#p"/></g><path fill="#282c33" d="M715 0H502L69-1082h202c94 253 197 500 285 758 19 57 36 126 52 183 96-335 234-626 350-941h201" id="v"/><path fill="#282c33" d="M745-142h380V0H143v-142h422v-798H246v-142h499v940zM545-1292v-192h200v192H545" id="w"/><g id="e"><use transform="matrix(0.009765625,0,0,0.009765625,0,0)" xlink:href="#p"/><use transform="matrix(0.009765625,0,0,0.009765625,12.001953125,0)" xlink:href="#n"/><use transform="matrix(0.009765625,0,0,0.009765625,24.00390625,0)" xlink:href="#q"/><use transform="matrix(0.009765625,0,0,0.009765625,36.005859375,0)" xlink:href="#v"/><use transform="matrix(0.009765625,0,0,0.009765625,48.0078125,0)" xlink:href="#w"/><use transform="matrix(0.009765625,0,0,0.009765625,60.009765625,0)" xlink:href="#t"/><use transform="matrix(0.009765625,0,0,0.009765625,72.01171875,0)" xlink:href="#n"/><use transform="matrix(0.009765625,0,0,0.009765625,84.013671875,0)" xlink:href="#p"/></g><path fill="#282c33" d="M655-135c108 0 195-33 260-74v-336H622v-160h479v572C981-54 839 20 639 20c-388 0-526-306-526-701 0-406 129-689 529-689 261 0 392 137 461 331l-171 56c-47-131-122-231-288-231-281 0-330 245-330 533 0 179 28 314 84 407s142 139 257 139" id="x"/><g id="f"><use transform="matrix(0.009765625,0,0,0.009765625,0,0)" xlink:href="#x"/><use transform="matrix(0.009765625,0,0,0.009765625,12.001953125,0)" xlink:href="#l"/><use transform="matrix(0.009765625,0,0,0.009765625,24.00390625,0)" xlink:href="#q"/><use transform="matrix(0.009765625,0,0,0.009765625,36.005859375,0)" xlink:href="#k"/></g><g id="g"><use transform="matrix(0.009765625,0,0,0.009765625,0,0)" xlink:href="#x"/><use transform="matrix(0.009765625,0,0,0.009765625,12.001953125,0)" xlink:href="#w"/><use transform="matrix(0.009765625,0,0,0.009765625,24.00390625,0)" xlink:href="#u"/></g><path fill="#282c33" d="M1000-272c3 95 12 159 101 161 21 0 41-3 59-7V-6c-44 10-86 16-139 16-141 2-191-84-197-217h-6C748-76 648 20 446 20c-207 0-318-120-318-322 0-266 194-348 454-354l236-4c12-191-40-305-222-305-140 0-220 47-232 172l-188-17c33-204 181-292 423-292 255 0 401 118 401 364v466zm-683-27c0 109 63 184 175 182 166-3 259-96 306-217 24-65 20-120 20-200-232 7-501-28-501 235" id="y"/><g id="h"><use transform="matrix(0.009765625,0,0,0.009765625,0,0)" xlink:href="#m"/><use transform="matrix(0.009765625,0,0,0.009765625,12.001953125,0)" xlink:href="#y"/><use transform="matrix(0.009765625,0,0,0.009765625,24.00390625,0)" xlink:href="#s"/><use transform="matrix(0.009765625,0,0,0.009765625,36.005859375,0)" xlink:href="#y"/></g><g id="i"><use transform="matrix(0.009765625,0,0,0.009765625,0,0)" xlink:href="#m"/><use transform="matrix(0.009765625,0,0,0.009765625,12.001953125,0)" xlink:href="#l"/><use transform="matrix(0.009765625,0,0,0.009765625,24.00390625,0)" xlink:href="#t"/><use transform="matrix(0.009765625,0,0,0.009765625,36.005859375,0)" xlink:href="#p"/></g><g id="j"><use transform="matrix(0.009765625,0,0,0.009765625,0,0)" xlink:href="#k"/><use transform="matrix(0.009765625,0,0,0.009765625,12.001953125,0)" xlink:href="#y"/><use transform="matrix(0.009765625,0,0,0.009765625,24.00390625,0)" xlink:href="#w"/><use transform="matrix(0.009765625,0,0,0.009765625,36.005859375,0)" xlink:href="#u"/></g></defs></g></svg>